<mxfile host="app.diagrams.net" modified="2024-04-04T12:57:34.041Z" agent="Mozilla/5.0 (Windows NT 10.0; Win64; x64) AppleWebKit/537.36 (KHTML, like Gecko) Chrome/122.0.0.0 Safari/537.36" version="24.2.1" etag="6lJa-syaQq8U-zhEhVQ0" type="github">
  <diagram name="ページ1" id="ZmdLxusV-gz8lEWglXxx">
    <mxGraphModel>
      <root>
        <mxCell id="0" />
        <mxCell id="1" parent="0" />
      </root>
    </mxGraphModel>
  </diagram>
</mxfile>
